<?xml version="1.0" encoding="utf-8"?>
<!-- Generator: Adobe Illustrator 26.2.1, SVG Export Plug-In . SVG Version: 6.00 Build 0)  -->
<svg version="1.1" id="Layer_1" xmlns="http://www.w3.org/2000/svg" xmlns:xlink="http://www.w3.org/1999/xlink" x="0px" y="0px"
	 viewBox="0 0 600 600" style="enable-background:new 0 0 600 600;" xml:space="preserve">
<style type="text/css">
	.st0{fill:#EF4136;}
	.st1{fill:#FFFFFF;}
	.st2{fill:#BCBEC0;}
</style>
<g id="_x34_TMYRx.tif">
	<g>
		<g>
			<path class="st0" d="M312.51,568.47c-2.53,0-4.97-0.49-7.34-0.96l-0.38-0.07c-1.42-0.28-2.67-1.22-3.53-2.66
				c-1.21-2.01-1.52-4.69-0.83-6.99c1.1-3.65,3.62-6.1,5.85-8.27c0.44-0.42,0.87-0.85,1.3-1.28c2.29-2.34,4.59-4.75,6.82-7.08
				l1.8-1.88c-0.35-2.18,0.68-3.92,1.54-5.2c0.27-1.75,1.1-8.09,1.38-10.42c0.17-1.44-0.26-3.39-1.16-5.23
				c-1.59-3.26-3.47-6.51-5.28-9.64c-0.63-1.09-1.26-2.17-1.88-3.26c-0.41-0.72-0.8-1.46-1.18-2.2c-0.9-1.73-1.75-3.37-2.87-4.63
				c-4.26-4.82-6.78-9.12-8.17-13.95c-0.14-0.21-0.64-0.64-1.19-0.88c-0.96-0.43-2.2-0.7-3.6-0.8l-2.85-0.2
				c-4.89-0.34-9.95-0.69-14.88-0.71c0,0,0,0,0,0c-1.23,0-3.64,0.09-6.19,0.19c-3.44,0.13-7.33,0.28-9.97,0.28
				c-1.21,0-2.05-0.03-2.64-0.09c-0.81-0.09-1.61-0.17-2.46-0.26c0.68,1.5,1.34,2.94,2.01,4.34c1.82,3.78,3.65,7.56,5.48,11.34
				c1.98,4.08,3.95,8.16,5.92,12.24c0.07,0.14,0.17,0.38,0.3,0.69c1.97,4.8,3.11,5.1,3.24,5.12c3.94,0.23,5.11,3.62,5.81,5.64
				c0.14,0.4,0.27,0.79,0.42,1.14c1.42,3.3,2.2,6.21,2.37,8.91c0.08,1.27,0.31,2.56,0.56,3.92c0.51,2.85,1.09,6.08,0.2,9.47
				c-0.49,1.86-0.91,3.47-23.3,5.7c-10.79,1.07-22.59,1.82-26.43,1.82l-0.47,0c-0.47-0.01-0.94-0.01-1.41-0.01
				c-0.74,0-1.47,0.01-2.21,0.02c-0.76,0.01-1.51,0.02-2.27,0.02c-1.13,0-2.07-0.02-2.95-0.06c-4.29-0.21-9.64-0.47-14.75-1.04
				c-2.2-0.24-3.67-1.09-4.36-2.51c-0.43-0.89-0.5-1.87-0.2-2.94c-0.41-0.35-0.82-0.76-1.18-1.26c-1.38-1.94-1.76-4.67-1.02-7.3
				c0.73-2.6,2.39-4.63,4.56-5.56c2.23-0.96,4.52-1.79,6.74-2.6c2-0.73,4.06-1.48,6.03-2.3c1.37-0.58,2.7-1.48,4.1-2.43
				c0.32-0.22,0.65-0.44,0.97-0.65c2.25-1.5,4.45-3.02,6.58-4.49l0.42-0.29c-0.88-1.25-1.69-2.56-1.53-4.18
				c0.19-1.84,1.55-3.04,2.75-4.1c0.23-0.2,0.45-0.4,0.65-0.59c0.02-0.06,0.03-0.12,0.05-0.19c0.2-0.71,0.42-1.52,0.47-2.26
				c0.02-0.26-0.09-0.75-0.31-1.1c-2.4-3.86-5.19-7.14-8.55-10.02c-2.45-2.1-4.77-4.37-7.01-6.56c-1.12-1.09-2.23-2.18-3.36-3.25
				c-10-9.46-16.9-17.5-22.37-26.09c-1.06-1.67-2.37-3.22-3.75-4.86c-1.61-1.91-3.28-3.89-4.6-6.15c-2.13-3.62-3.91-7.84-5.61-13.27
				c-0.71-2.27-0.04-4.65,0.56-6.75l0.2-0.72c1.58-5.79,5.08-10.21,10.41-13.15c1.39-0.76,3.04-1.36,4.78-1.72
				c1.97-0.41,3.97-0.77,5.9-1.12c2.93-0.53,5.96-1.07,8.85-1.78c6.19-1.52,12.71-2.34,19.92-2.51c0.21,0,0.42-0.01,0.63-0.01
				c3.21,0,6.18,0.58,9.05,1.13c0.62,0.12,1.23,0.24,1.86,0.35c0.29,0.05,0.77,0.16,1.34,0.29c0.27,0.06,0.6,0.14,0.95,0.21
				c-0.23-0.73-0.47-1.47-0.71-2.21c-0.75-2.28-1.52-4.64-1.93-6.71c-0.47-2.38-1.21-4.75-2-7.27c-0.85-2.71-1.73-5.52-2.24-8.36
				c-0.64-3.52-1.21-7.1-1.76-10.56l-0.31-1.92c-0.43-2.68-0.88-5.45-1.23-8.2c-0.28-2.14-0.52-4.29-0.77-6.44
				c-0.34-2.92-0.69-5.93-1.1-8.87c-0.1-0.69-0.19-1.38-0.28-2.08c-0.38-2.94-0.74-5.72-1.65-8.24c-1.12-3.12-3.11-6.08-6.09-9.07
				c-5.02-5.03-8.05-9.73-9.54-14.77c-1.33-4.5-3.87-8.15-6.19-11.12c-2.2-2.83-3.27-5.94-4.3-8.94c-0.32-0.92-0.64-1.85-0.99-2.77
				c-0.13-0.34-0.26-0.68-0.39-1.03c-0.51-1.4-1.09-2.98-1.84-3.59c-2.73-2.22-3.9-5.06-4.94-7.56c-0.23-0.56-0.46-1.11-0.71-1.66
				c-1.3-2.88-2.26-5.32-2.99-7.58c-3.11,1.25-6.56,1.84-10.74,1.84c-2.46,0-4.9-0.2-7.25-0.39l-0.34-0.03
				c-11.08-0.89-20.85-5.27-29.05-13.02c-7.27-6.87-12.49-14.9-15.52-23.88c-1.09-3.22-1.93-6.54-2.74-9.75
				c-0.36-1.43-0.72-2.87-1.11-4.29l-0.11-0.4c-0.04,0.01-0.08,0.01-0.12,0.02c-1.92,0.26-3.91,0.52-5.95,0.52l-0.29,0
				c-2.25-0.03-4.29-2.09-5.02-3.54c-1.04-2.07-0.64-5.39,0.3-7.59c0.91-2.13,2.18-2.91,3.08-3.19c1.67-0.52,3.34-0.64,4.95-0.76
				l0.4-0.03c0.54-0.04,1.12-0.06,1.81-0.06c0.12,0,0.23,0,0.35,0c0.03-0.26,0.06-0.52,0.09-0.78c0.25-2.21,0.51-4.49,1.01-6.72
				l0.32-1.41c0.97-4.33,1.98-8.81,3.64-13.06c2.76-7.07,7.18-13.6,13.15-19.42c6.58-6.42,14.98-10.64,24.95-12.54
				c3.55-0.68,6.99-1.02,10.22-1.02c5.2,0,10.11,0.89,14.6,2.65c6.7,2.62,12.77,6.75,18.55,12.61c5.48,5.56,9.65,12.17,12.73,20.21
				c1.49,3.88,2.59,7.92,3.65,11.83c0.32,1.19,0.64,2.37,0.98,3.55c2.53-0.12,6.52-0.34,10.18-0.53c3.07-0.17,6.1-0.33,8.34-0.44
				l4.08-0.21c8.4-0.43,28.06-1.44,32.34-1.64c1.69-0.08,8.15-0.37,16.39-0.74c17.6-0.8,43.31-1.97,48.07-2.18l1.6-0.07
				c3.66-0.16,7.44-0.32,11.17-0.42c0.17,0,0.23-0.03,0.23-0.03c0.2-0.15,0.44-1.02,0.56-1.43l0.04-0.13
				c0.63-2.18,1.86-3.68,3.73-4.53c0.22-6.69,2-12.96,3.83-18.83c2.74-8.81,7.35-16.88,14.09-24.67
				c5.73-6.62,12.85-11.16,21.18-13.51c5.36-1.51,10.7-2.27,15.89-2.27c2.44,0,4.9,0.17,7.32,0.5c7.86,1.08,15.13,4.56,22.87,10.94
				c5.35,4.41,9.91,9.97,13.56,16.55c4.46,8.03,7.31,15.59,8.73,23.11c0.33,1.78,0.65,3.42,1.03,4.99c0.75,0.04,1.88,0.07,3.48,0.07
				c1.86,0,3.85-0.05,5.08-0.12c7.04-0.42,12.92-0.72,18.53-0.94c0.19-0.01,0.38-0.01,0.56-0.01c3.24,0,6.12,1.12,8.1,3.14
				c1.88,1.92,2.84,4.51,2.78,7.48c-0.05,2.51-0.31,5.38-2.66,7.75c-1.59,1.61-4.48,1.85-7.36,1.88c-0.14,0-0.26,0-0.33,0
				c-0.83,0.08-4.94,0.32-11.57,0.7c-5.37,0.31-12.24,0.71-15.71,0.94c-0.01,0.21-0.03,0.42-0.06,0.64c-0.14,1-0.27,2-0.39,3.01
				c-0.39,3.03-0.78,6.16-1.47,9.23l-0.31,1.4c-0.95,4.31-1.93,8.76-3.82,12.87c-2.39,5.2-5.53,10.57-9.35,15.96
				c-4.81,6.78-11.6,12.05-20.17,15.65c-5.11,2.15-10.45,3.24-15.86,3.24l0,0c-1.73,0-3.5-0.11-5.25-0.33
				c-6.77-0.85-13.34-1.89-19.45-5.12c-7.94-4.2-14.6-10.43-19.79-18.51c-0.9-1.4-1.79-2.79-2.71-4.23
				c-0.4,0.99-0.77,1.97-1.07,2.96c-2.66,8.8-7.51,16.48-12.26,23.6c-0.77,1.15-1.48,2.33-2.23,3.58c-0.75,1.25-1.54,2.54-2.38,3.8
				c-1.08,1.61-2.2,3.21-3.28,4.75c-1.36,1.94-2.77,3.95-4.07,5.95c-1.81,2.8-3.4,5.33-4.55,8c-1.1,2.56-1.88,5.25-2.71,8.1
				c-0.18,0.61-0.35,1.21-0.53,1.82c-0.66,2.24-1.26,4.56-1.84,6.81c-0.21,0.8-0.41,1.6-0.62,2.4c-1.64,6.24-4.59,11.63-6.98,15.63
				c-0.62,1.04-0.93,2.48-1.26,4c-0.17,0.78-0.34,1.59-0.57,2.4c-0.09,0.31-0.19,0.61-0.28,0.92c-0.18,0.54-0.34,1.06-0.38,1.47
				c-0.18,1.71-1.46,14.3-1.54,15.76c0.27,3.72,0.66,7.53,1.03,11.11c0.12,1.17,0.27,2.34,0.42,3.52c0.33,2.59,0.68,5.28,0.71,7.99
				c0.03,2.28-1.57,4.58-3.07,5.97c-0.16,0.15-0.28,0.26-0.36,0.35c0.04,0.06,0.09,0.14,0.15,0.23c0.82,1.22,1.39,2.5,1.95,3.75
				c0.5,1.11,0.97,2.16,1.56,3.03c1.4,2.05,2.93,3.98,4.56,6.02c0.9,1.13,1.8,2.26,2.67,3.4l0.25,0.32
				c0.75,0.95,1.77,2.25,1.65,3.91c-0.07,0.9,0.42,1.53,1.54,2.73c1.55,1.66,2.17,3.63,1.91,6.01c-0.06,0.51-0.08,0.75,0.76,1.34
				c1.12,0.79,2.05,1.7,2.95,2.58c0.68,0.66,1.32,1.28,1.98,1.8c0.9,0.7,1.91,1.32,2.98,1.98c0.64,0.39,1.28,0.79,1.91,1.2
				c3.61,2.4,6.4,5.69,8.53,10.07c0.08,0.17,0.29,0.44,0.5,0.69c0.27,0.34,0.58,0.73,0.86,1.2c3.48,5.88,5.41,10.93,6.07,15.89
				c0.54,4.1,1.22,9.2-1.58,14.05c-0.77,1.33-1.36,2.83-1.98,4.42c-0.73,1.85-1.48,3.76-2.58,5.55
				c-4.11,6.66-10.26,11.1-15.71,14.74c-0.25,0.17-0.38,0.28-0.43,0.34c0,0.03,0,0.07,0.01,0.12l0.08,0.73
				c0.17,1.55,0.35,3.16,0.37,4.81c0.02,1.99,0,3.98-0.01,5.97c-0.03,3.14-0.06,6.39,0.09,9.55c0.2,4.35,0.68,8.79,1.14,13.09
				l0.24,2.2c0.05,0.46,0.46,0.94,1.13,1.7c0.26,0.3,0.53,0.6,0.78,0.91c2.31,2.88,4.15,6.13,5.33,9.39
				c0.99,2.73,1.58,5.55,2.15,8.29c0.26,1.24,0.52,2.48,0.81,3.71c1.02,4.21-2.62,10.61-6.82,12.02c-2.01,0.67-3.95,1.5-6.01,2.37
				c-1.97,0.83-4.01,1.7-6.1,2.41c-2.72,0.93-5.63,1.53-8.66,1.79c-6.07,0.52-12,0.83-17.6,0.94L312.51,568.47z M273.32,244.01
				c1.2,0,2.29,0.32,3.26,0.59c0.42,0.12,0.84,0.25,1.26,0.33c5.36,1.06,6.9,3.11,9.46,6.5c0.3,0.4,0.62,0.83,0.98,1.29
				c0.4,0.52,2.29,1.73,3.09,2.25c1.1,0.7,1.6,1.03,1.97,1.5l0.13,0.16c0.88,1.1,1.79,2.25,2.62,3.47l0.34,0.49
				c0.72,1.03,1.53,2.2,2.01,3.59c0.36,1.04,0.58,2.07,0.78,3.06c0.21,0.99,0.4,1.93,0.72,2.72c2.03,5.04,2.22,9.87,0.53,13.99
				c-1.07,2.61-1.83,5.24-2.58,7.79c-0.97,3.33-1.97,6.77-3.66,10.29c-0.86,1.79-1.3,3.25-1.35,4.47c0,0.07,0,0.13-0.01,0.19
				c1.61-0.32,3.29-0.72,4.27-1.48c1.94-1.51,3.85-3.64,5.83-6.5c1.38-2,2.58-4.1,3.86-6.33c0.83-1.45,1.68-2.94,2.59-4.4
				c0.36-0.59,0.72-1.17,1.09-1.76c1.81-2.95,3.69-6.01,5.94-8.78c1.02-1.26,2.38-2.02,3.57-2.7c0.87-0.49,1.7-0.96,2.14-1.48
				c2.1-2.45,4.45-5.32,5.67-8.39c2.38-5.97,5.16-12.28,9.4-17.99c1.57-2.11,3.12-4.29,4.63-6.41c1.47-2.06,2.99-4.2,4.54-6.28
				c0.96-1.29,1.97-2.53,2.95-3.73c0.95-1.16,1.84-2.25,2.7-3.4c0.97-1.3,1.93-2.69,2.85-4.03c0.85-1.23,1.72-2.5,2.63-3.74
				c1.76-2.4,2.78-5.25,3.02-8.46c-0.1-0.12-0.22-0.26-0.34-0.36c-3.95,0.08-8,0.29-11.92,0.5c-2.44,0.13-4.88,0.26-7.32,0.36
				c-2.75,0.11-8.17,0.3-13.4,0.49c-5.75,0.2-11.19,0.39-12.71,0.47c-1.28,0.06-5.05,0.25-10.35,0.51
				c-23.36,1.15-71.35,3.5-78.02,3.71c-0.24,1.68-0.42,3.41-0.6,5.09c-0.41,3.96-0.84,8.06-2.08,12.12
				c-1.86,6.12-3.88,10.89-6.38,15c-0.3,0.5-0.34,0.69-0.34,0.72c0,0,0.03,0.1,0.17,0.32c0.64,1,1.25,2.01,1.86,3.03
				c0.5,0.83,1,1.67,1.51,2.49c3.12,4.94,5.07,9.95,5.98,15.35c0.76,4.52,1.79,9.72,4.4,14.21c1.1,1.89,2.26,3.76,3.49,5.73
				c0.53,0.86,1.08,1.73,1.63,2.62c0.01,0.02,0.02,0.03,0.03,0.05c1.11,1.62,2.37,2.88,3.83,4.07c-0.77-1.8-1.59-4.01-1.75-7.05
				c-0.01-0.26,0.01-0.53,0.08-0.78c0.3-1.12,0.42-2.13,0.36-3.07c0,0,0,0,0,0c-0.04-0.6-0.03-1.17-0.02-1.68
				c0.03-1.38,0.02-2.01-0.53-2.67c-1.78-2.14-1.5-4.86,0.7-6.76c0.26-0.23,0.48-0.59,0.51-0.76c0.65-2.96,1.23-5.92,1.85-9.05
				l0.38-1.95c-2.37-2.44-1.83-5.26-1.02-7.52c0.95-2.66,3.82-4.21,6.12-5.45c0.86-0.46,1.67-0.9,2.13-1.26
				c0.24-0.19,0.44-0.36,0.62-0.51c0.88-0.74,1.78-1.5,3.67-1.88c3.07-0.61,6.19-1.05,9.21-1.48l2.26-0.32
				c0.57-0.08,1.14-0.17,1.7-0.26c2.18-0.33,4.44-0.68,6.74-0.79C273.1,244.01,273.21,244.01,273.32,244.01z"/>
			<path class="st1" d="M417.54,134.03c2.31,0,4.64,0.16,6.98,0.48c8.4,1.15,15.27,5.15,21.62,10.39
				c5.37,4.42,9.63,9.83,12.96,15.83c3.89,7,6.96,14.4,8.46,22.36c0.42,2.26,0.86,4.52,1.48,6.72c0.08,0.28,2.71,0.38,5.49,0.38
				c1.95,0,3.98-0.05,5.23-0.13c6.15-0.37,12.31-0.7,18.47-0.94c0.16-0.01,0.31-0.01,0.46-0.01c4.74,0,8.49,2.9,8.38,8.07
				c-0.05,2.28-0.26,4.36-1.93,6.04c-1.28,1.3-5.59,1.1-6.09,1.15c-2.15,0.21-27.98,1.58-29.62,1.84c0,0.79,0.1,1.71-0.02,2.6
				c-0.55,4.02-0.94,8.08-1.83,12.03c-1.04,4.66-1.99,9.48-3.96,13.78c-2.5,5.44-5.65,10.66-9.12,15.56
				c-4.81,6.78-11.51,11.61-19.1,14.79c-4.75,2-9.72,3.04-14.89,3.04c-1.63,0-3.27-0.1-4.93-0.31c-6.46-0.81-12.78-1.77-18.59-4.85
				c-7.88-4.17-14.06-10.18-18.86-17.65c-1.71-2.67-3.42-5.34-5.27-8.24c-1.02,2.56-2.22,5.02-3,7.6
				c-2.54,8.41-7.13,15.72-11.94,22.94c-1.61,2.41-3,4.97-4.61,7.38c-2.41,3.61-5.01,7.09-7.37,10.74
				c-1.74,2.69-3.49,5.44-4.75,8.37c-1.41,3.27-2.32,6.76-3.34,10.19c-0.91,3.07-1.67,6.18-2.49,9.28
				c-1.41,5.37-3.87,10.23-6.71,14.99c-1.21,2.03-1.43,4.64-2.09,6.99c-0.26,0.93-0.65,1.85-0.75,2.8
				c-0.12,1.16-1.59,15.51-1.55,16.09c0.27,3.77,0.65,7.54,1.04,11.3c0.39,3.76,1.08,7.52,1.12,11.28c0.02,1.39-1.16,3.08-2.28,4.11
				c-1.4,1.3-1.75,2.09-0.59,3.81c1.41,2.1,2.09,4.7,3.52,6.79c2.25,3.3,4.88,6.34,7.3,9.53c0.59,0.77,1.46,1.72,1.39,2.53
				c-0.16,2.07,1.07,3.4,2.21,4.63c1.16,1.25,1.42,2.53,1.25,4.03c-0.18,1.64,0.41,2.68,1.8,3.66c1.75,1.23,3.13,2.98,4.83,4.3
				c1.58,1.23,3.37,2.18,5.04,3.3c3.43,2.28,5.88,5.39,7.67,9.08c0.36,0.75,1.03,1.35,1.46,2.07c2.76,4.66,5.04,9.61,5.74,14.94
				c0.54,4.11,1.07,8.41-1.27,12.47c-1.81,3.13-2.63,6.84-4.52,9.91c-3.68,5.97-9.23,10.14-14.97,13.97
				c-1.13,0.76-1.67,1.48-1.52,2.81c0.19,1.76,0.42,3.53,0.44,5.3c0.06,5.2-0.16,10.41,0.07,15.6c0.23,5.16,0.84,10.3,1.38,15.44
				c0.17,1.64,1.44,2.65,2.44,3.91c2.06,2.57,3.81,5.58,4.93,8.68c1.37,3.77,1.94,7.82,2.88,11.74c0.68,2.81-2.07,8.01-5.19,9.06
				c-4.11,1.38-8.02,3.38-12.13,4.79c-2.58,0.88-5.34,1.43-8.06,1.67c-5.8,0.49-11.62,0.82-17.44,0.93c-0.11,0-0.21,0-0.32,0
				c-2.41,0-4.84-0.51-7.22-0.99c-2.06-0.41-3.25-3.81-2.45-6.47c1.11-3.66,4.01-5.95,6.54-8.53c3.11-3.17,6.16-6.4,9.22-9.61
				c0.16-0.16,0.42-0.45,0.38-0.55c-0.88-1.92,0.13-3.32,1.13-4.79c0.09-0.14,1.19-8.51,1.5-11.1c0.25-2.14-0.43-4.63-1.4-6.62
				c-2.18-4.46-4.78-8.72-7.24-13.05c-1.4-2.46-2.52-5.18-4.35-7.25c-3.44-3.89-6.22-8.01-7.66-13.05
				c-0.28-0.99-1.53-1.95-2.55-2.41c-1.37-0.61-2.95-0.91-4.46-1.01c-5.96-0.4-11.93-0.89-17.89-0.91c-0.02,0-0.04,0-0.06,0
				c-2.8,0-11.5,0.46-16.12,0.46c-1.02,0-1.85-0.02-2.36-0.08c-2.07-0.23-4.14-0.44-6.81-0.73c1.43,3.12,2.59,5.77,3.84,8.37
				c3.79,7.87,7.62,15.71,11.4,23.58c0.43,0.89,2.51,7.04,5.64,7.22c2.84,0.16,3.21,3.25,4.09,5.28c1.1,2.54,1.99,5.34,2.17,8.07
				c0.27,4.2,1.97,8.29,0.83,12.6c-0.71,2.72-39.86,5.65-47.31,5.65c-0.15,0-0.29,0-0.42,0c-0.48-0.01-0.97-0.01-1.45-0.01
				c-1.49,0-2.99,0.03-4.48,0.03c-0.94,0-1.89-0.01-2.83-0.06c-4.87-0.24-9.75-0.49-14.6-1.02c-2.65-0.29-3.14-1.5-1.77-3.71
				c-0.82-0.71-1.68-1.22-2.21-1.97c-1.95-2.74-0.7-7.75,2.49-9.11c4.18-1.8,8.55-3.13,12.74-4.89c1.95-0.82,3.71-2.12,5.49-3.31
				c3.17-2.11,6.29-4.3,9.09-6.21c-1.09-1.85-2.64-3.3-2.51-4.57c0.13-1.26,1.95-2.35,3.16-3.66c0.21-0.88,0.67-2.2,0.77-3.54
				c0.06-0.85-0.22-1.87-0.68-2.6c-2.47-3.99-5.45-7.52-9.04-10.6c-3.58-3.07-6.86-6.49-10.29-9.73
				c-8.22-7.77-15.86-16.01-21.98-25.62c-2.45-3.85-6-7.02-8.3-10.93c-2.32-3.95-4-8.36-5.38-12.75c-0.56-1.78,0.25-4.1,0.79-6.07
				c1.4-5.15,4.53-9.04,9.2-11.62c1.25-0.69,2.68-1.17,4.08-1.46c4.94-1.02,9.95-1.72,14.84-2.92c6.39-1.57,12.8-2.29,19.38-2.44
				c0.19,0,0.38-0.01,0.57-0.01c3.63,0,6.99,0.81,10.46,1.44c1.01,0.19,4.46,1.09,5.97,1.09c0.07,0,0.14,0,0.2-0.01
				c-0.77-3.7-2.88-8.71-3.61-12.44c-1.02-5.19-3.3-10.38-4.24-15.59c-0.7-3.85-1.31-7.73-1.93-11.59
				c-0.48-2.98-0.97-5.96-1.35-8.96c-0.66-5.11-1.16-10.24-1.88-15.34c-0.51-3.64-0.82-7.4-2.05-10.82
				c-1.35-3.76-3.75-7.06-6.67-9.99c-3.91-3.92-7.33-8.36-8.92-13.71c-1.35-4.55-3.81-8.35-6.61-11.95
				c-2.59-3.34-3.47-7.29-4.93-11.07c-0.77-2-1.45-4.42-2.98-5.66c-2.78-2.26-3.62-5.38-4.94-8.31c-1.21-2.69-2.34-5.44-3.19-8.26
				c-0.28-0.93-0.78-1.22-1.29-1.22c-0.27,0-0.54,0.08-0.79,0.19c-3.49,1.61-7.11,2.07-10.74,2.07c-2.47,0-4.95-0.21-7.39-0.41
				c-10.5-0.85-19.76-5-27.53-12.34c-6.82-6.44-11.88-14-14.87-22.86c-1.53-4.54-2.55-9.26-3.8-13.89c-0.2-0.74-0.39-1.48-0.67-2.51
				c-2.64,0.29-5.29,0.8-7.93,0.8c-0.09,0-0.17,0-0.26,0c-0.98-0.01-2.33-1.18-2.82-2.17c-0.91-1.81,0.08-6.71,1.89-7.27
				c1.53-0.47,3.19-0.56,4.8-0.69c0.54-0.04,1.08-0.05,1.62-0.05c0.86,0,1.71,0.03,2.55,0.03c0.44-3.26,0.65-6.43,1.34-9.48
				c1.08-4.76,2.08-9.6,3.85-14.12c2.76-7.06,7.09-13.2,12.57-18.54c6.66-6.49,14.72-10.17,23.67-11.87
				c3.25-0.62,6.51-0.98,9.75-0.98c4.63,0,9.23,0.73,13.69,2.48c6.75,2.64,12.5,6.79,17.68,12.04c5.56,5.64,9.42,12.16,12.18,19.35
				c2.09,5.44,3.38,11.19,5.02,16.79c-0.22,0.09-0.44,0.19-0.66,0.28c0.01,0,0.06,0.01,0.15,0.01c1.55,0,14.64-0.75,21.1-1.08
				c2.42-0.12,31.09-1.61,36.41-1.84c5.29-0.24,57.47-2.62,64.46-2.92c4.24-0.18,8.48-0.38,12.72-0.49c2.27-0.06,2.76-1.97,3.17-3.4
				c0.61-2.1,1.86-3.02,3.81-3.39c-0.08-6.95,1.72-13.43,3.74-19.92c2.79-8.97,7.48-16.71,13.6-23.78
				c5.44-6.29,12.07-10.51,19.96-12.74C407.34,134.8,412.39,134.03,417.54,134.03 M234.01,294.5c-0.18-0.26-0.37-0.54-0.54-0.79
				C233.64,293.96,233.83,294.23,234.01,294.5c0.03,0.04,0.05,0.08,0.07,0.12c0,0,0,0,0-0.01c2.55,3.75,5.79,5.71,9.67,8.58
				c0.89-4.64-2.69-6.8-3.02-13.1c0.36-1.32,0.52-2.62,0.44-3.89c0.01-0.04,0.02-0.06,0.02-0.06s-0.01,0.02-0.02,0.06
				c-0.13-1.99,0.43-3.92-1.12-5.78c-0.88-1.06-0.78-2.24,0.41-3.27c0.61-0.52,1.15-1.34,1.32-2.11c0.89-4.04,1.66-8.12,2.53-12.5
				c-2.19-1.52-2.36-3.04-1.4-5.72c0.93-2.6,5.51-4.07,7.44-5.59c1.24-0.98,1.65-1.59,3.23-1.9c3.75-0.74,7.55-1.23,11.34-1.78
				c2.73-0.4,5.46-0.89,8.2-1.02c0.07,0,0.14,0,0.2,0c1.33,0,2.68,0.61,4.03,0.87c4.97,0.98,5.7,2.65,8.93,6.86
				c1.03,1.34,4.76,3.36,5.09,3.78c0.91,1.14,1.82,2.28,2.64,3.48c0.76,1.12,1.62,2.24,2.05,3.49c0.67,1.91,0.79,4.03,1.54,5.9
				c1.62,4.02,2.11,8.27,0.54,12.11c-2.51,6.15-3.3,11.94-6.17,17.94c-0.81,1.7-1.51,3.6-1.6,5.44c-0.05,1.17,0.1,2.68,1.48,3.06
				c-0.05,0.02,0,0.03,0.11,0.03c0.01,0,0.01,0,0.02,0c0.18,0.04,0.38,0.06,0.59,0.06c0.21,0,0.44-0.02,0.69-0.06
				c0.43-0.07,0.49-0.09,0.36-0.09c-0.26,0-1.26,0.09-1.64,0.09c-0.04-0.01-0.09-0.02-0.13-0.03c0.05-0.02,0.17-0.05,0.39-0.09
				c2.22-0.43,4.74-0.85,6.43-2.17c2.46-1.92,4.55-4.46,6.35-7.05c2.39-3.46,4.29-7.26,6.51-10.84c2.17-3.5,4.26-7.11,6.84-10.29
				c1.43-1.75,4.19-2.4,5.67-4.13c2.37-2.76,4.77-5.77,6.1-9.1c2.45-6.15,5.12-12.09,9.08-17.42c3.11-4.19,6.06-8.5,9.17-12.69
				c1.8-2.43,3.83-4.7,5.64-7.12c1.9-2.54,3.61-5.23,5.49-7.79c2.25-3.06,3.34-6.57,3.53-10.25c0.04-0.85-1.57-2.56-2.41-2.56
				c0,0-0.01,0-0.01,0c-6.6,0.11-13.19,0.6-19.78,0.86c-5.76,0.23-23.18,0.81-26.13,0.95c-6.75,0.32-83.05,4.11-88.74,4.22
				c-1.22,0.03-1.73,0.37-1.93,1.71c-0.86,5.76-0.93,11.59-2.65,17.27c-1.54,5.07-3.4,9.93-6.12,14.43
				c-0.85,1.41-0.97,2.39-0.13,3.69c1.16,1.81,2.21,3.68,3.36,5.5c2.81,4.45,4.75,9.21,5.63,14.43c0.88,5.22,2,10.4,4.71,15.05
				C230.46,288.83,232.19,291.53,234.01,294.5 M417.54,129.03c-5.41,0-10.99,0.8-16.56,2.37c-8.8,2.48-16.34,7.28-22.39,14.28
				c-6.97,8.06-11.75,16.42-14.59,25.56c-1.75,5.64-3.47,11.63-3.87,18.09c-2.07,1.42-3.12,3.42-3.65,5.15
				c-3.27,0.1-6.56,0.24-9.75,0.38l-1.61,0.07c-4.75,0.21-30.74,1.39-47.94,2.17c-8.31,0.38-14.83,0.67-16.53,0.75
				c-4.23,0.19-22.99,1.15-32,1.62l-4.43,0.23c-2.23,0.11-5.26,0.28-8.32,0.44c-2.6,0.14-5.72,0.31-8.2,0.44
				c-0.15-0.54-0.29-1.08-0.44-1.61c-1.08-3.97-2.19-8.07-3.73-12.07c-3.21-8.37-7.55-15.26-13.28-21.07
				c-6.03-6.12-12.39-10.43-19.42-13.19c-4.78-1.87-10-2.82-15.51-2.82c-3.38,0-6.98,0.36-10.69,1.07
				c-10.46,1.99-19.29,6.44-26.23,13.2c-6.22,6.07-10.84,12.89-13.73,20.3c-1.73,4.42-2.75,9-3.75,13.42l-0.32,1.41
				c-0.43,1.89-0.68,3.77-0.9,5.61c-0.04,0-0.07,0.01-0.11,0.01l-0.39,0.03c-1.67,0.13-3.56,0.27-5.5,0.87
				c-1.41,0.44-3.36,1.59-4.64,4.6c-1.13,2.65-1.69,6.82-0.24,9.7c1.21,2.41,4.09,4.88,7.23,4.92l0.32,0c1.46,0,2.86-0.12,4.22-0.28
				c0.22,0.85,0.44,1.71,0.65,2.55c0.82,3.25,1.67,6.62,2.79,9.93c3.16,9.37,8.61,17.75,16.18,24.89
				c8.62,8.14,18.91,12.75,30.56,13.69l0.34,0.03c2.41,0.19,4.9,0.4,7.46,0.4c3.45,0,6.45-0.38,9.2-1.17
				c0.62,1.67,1.36,3.45,2.25,5.44c0.24,0.53,0.46,1.06,0.67,1.59c1.08,2.63,2.43,5.9,5.62,8.51c0.33,0.39,0.82,1.74,1.12,2.55
				c0.13,0.36,0.27,0.73,0.4,1.07c0.33,0.86,0.63,1.74,0.96,2.68c1.05,3.05,2.23,6.5,4.69,9.66c2.17,2.79,4.55,6.2,5.76,10.3
				c1.61,5.46,4.85,10.49,10.17,15.83c2.71,2.72,4.51,5.39,5.51,8.15c0.81,2.26,1.16,4.91,1.52,7.72c0.09,0.7,0.18,1.41,0.28,2.11
				c0.41,2.91,0.76,5.9,1.09,8.8c0.25,2.12,0.5,4.31,0.78,6.48c0.36,2.8,0.81,5.6,1.25,8.31l0.13,0.8l0.17,1.09
				c0.56,3.47,1.13,7.06,1.77,10.6c0.54,2.99,1.44,5.87,2.32,8.66c0.77,2.45,1.49,4.76,1.93,7c0.32,1.63,0.83,3.37,1.39,5.12
				c-2.98-0.58-6.06-1.17-9.5-1.17c-0.23,0-0.45,0-0.68,0.01c-7.4,0.17-14.09,1.02-20.46,2.59c-2.82,0.69-5.67,1.21-8.7,1.75
				c-1.95,0.35-3.97,0.71-5.97,1.13c-1.97,0.41-3.87,1.09-5.47,1.98c-5.87,3.23-9.88,8.31-11.62,14.68c-0.06,0.23-0.13,0.46-0.2,0.7
				c-0.62,2.19-1.47,5.2-0.54,8.18c1.76,5.62,3.61,10.01,5.84,13.79c1.43,2.44,3.17,4.5,4.84,6.49c1.33,1.58,2.58,3.06,3.55,4.6
				c5.59,8.77,12.61,16.96,22.76,26.56c1.11,1.05,2.24,2.16,3.34,3.23c2.27,2.22,4.62,4.52,7.13,6.67c3.12,2.67,5.72,5.72,7.96,9.3
				c-0.05,0.3-0.13,0.65-0.22,1c-0.03,0.03-0.06,0.05-0.09,0.08c-1.31,1.16-3.29,2.91-3.58,5.72c-0.15,1.41,0.17,2.64,0.67,3.71
				c-1.65,1.14-3.34,2.29-5.04,3.43c-0.33,0.22-0.66,0.44-0.99,0.67c-1.3,0.88-2.52,1.71-3.66,2.19c-1.91,0.8-3.85,1.51-5.91,2.26
				c-2.25,0.82-4.57,1.66-6.87,2.65c-2.87,1.23-5.05,3.85-5.98,7.18c-0.94,3.35-0.42,6.88,1.39,9.42c0.18,0.25,0.36,0.48,0.55,0.69
				c-0.08,1.3,0.23,2.36,0.62,3.15c0.75,1.54,2.45,3.47,6.33,3.9c4.83,0.54,9.61,0.79,14.91,1.05c0.92,0.04,1.9,0.07,3.07,0.07
				c0.77,0,1.53-0.01,2.3-0.02c0.73-0.01,1.46-0.02,2.18-0.02c0.45,0,0.9,0,1.35,0.01c0.16,0,0.33,0,0.52,0
				c3.9,0,15.81-0.75,26.67-1.83c6.14-0.61,11.13-1.23,14.82-1.86c4.71-0.8,9.58-1.62,10.65-5.69c1.03-3.93,0.4-7.45-0.16-10.55
				c-0.23-1.29-0.45-2.51-0.52-3.64c-0.19-2.99-1.03-6.18-2.57-9.74c-0.1-0.23-0.22-0.59-0.35-0.97c-0.69-1.99-2.25-6.51-7.21-7.24
				c-0.35-0.42-0.97-1.4-1.89-3.65c-0.15-0.38-0.28-0.66-0.36-0.83c-1.96-4.08-3.93-8.15-5.91-12.22
				c-1.83-3.78-3.67-7.57-5.49-11.36c-0.06-0.13-0.13-0.27-0.19-0.4c0.31,0.01,0.65,0.01,1.02,0.01c2.69,0,6.61-0.15,10.07-0.28
				c2.53-0.1,4.92-0.19,6.05-0.19c4.89,0.01,9.91,0.36,14.75,0.7c0.95,0.07,1.91,0.13,2.86,0.2c1.1,0.07,2.07,0.28,2.75,0.58
				c0.01,0,0.02,0.01,0.03,0.01c1.53,4.86,4.24,9.39,8.49,14.19c0.91,1.03,1.7,2.54,2.52,4.13c0.39,0.74,0.79,1.51,1.23,2.28
				c0.62,1.1,1.25,2.19,1.89,3.28c1.88,3.24,3.65,6.3,5.2,9.49c0.66,1.36,1.04,2.91,0.93,3.84c-0.27,2.29-0.98,7.66-1.29,9.81
				c-0.79,1.24-1.7,3.02-1.72,5.18c-0.35,0.36-0.69,0.73-1.04,1.09c-2.22,2.33-4.51,4.73-6.79,7.06c-0.41,0.42-0.84,0.83-1.26,1.24
				c-2.32,2.26-5.21,5.07-6.5,9.34c-0.89,2.95-0.48,6.4,1.08,9c1.23,2.04,3.07,3.4,5.18,3.82l0.37,0.07
				c2.37,0.47,5.05,1.01,7.83,1.01c0.14,0,0.28,0,0.42,0c5.66-0.11,11.64-0.43,17.77-0.95c3.23-0.28,6.35-0.92,9.26-1.92
				c2.18-0.75,4.25-1.62,6.26-2.48c2.01-0.85,3.92-1.66,5.83-2.3c5.43-1.82,9.77-9.52,8.46-14.97c-0.28-1.18-0.53-2.37-0.8-3.64
				c-0.59-2.82-1.2-5.74-2.25-8.63c-1.27-3.51-3.25-7-5.73-10.09c-0.28-0.35-0.57-0.68-0.86-1.01c-0.18-0.2-0.41-0.47-0.55-0.65
				l-0.2-1.86c-0.46-4.26-0.93-8.67-1.13-12.94c-0.14-3.09-0.11-6.16-0.08-9.41c0.02-1.96,0.04-4,0.01-6.02
				c-0.02-1.55-0.16-3.02-0.32-4.44c5.46-3.69,11.47-8.21,15.63-14.96c1.22-1.98,2.01-4,2.78-5.95c0.59-1.5,1.14-2.91,1.82-4.08
				c3.22-5.59,2.46-11.39,1.9-15.63c-0.7-5.31-2.74-10.66-6.4-16.84c-0.37-0.62-0.76-1.12-1.05-1.48c-0.08-0.11-0.2-0.25-0.25-0.33
				c-2.32-4.74-5.38-8.33-9.35-10.96c-0.67-0.45-1.34-0.86-1.98-1.25c-1.01-0.62-1.96-1.2-2.75-1.82c-0.56-0.43-1.15-1.01-1.77-1.62
				c-0.84-0.82-1.79-1.74-2.91-2.58c0.14-2.81-0.74-5.24-2.62-7.26c-0.27-0.29-0.69-0.74-0.87-1.01c0.13-2.54-1.32-4.37-2.18-5.48
				c-0.08-0.1-0.15-0.2-0.22-0.29c-0.89-1.18-1.81-2.33-2.7-3.45c-1.59-2-3.1-3.9-4.45-5.87c-0.47-0.69-0.89-1.64-1.34-2.65
				c-0.36-0.82-0.76-1.7-1.24-2.6c1.22-1.42,2.83-3.85,2.8-6.71c-0.03-2.86-0.39-5.62-0.73-8.28c-0.15-1.2-0.3-2.32-0.42-3.46
				c-0.38-3.66-0.74-7.24-1.01-10.87c0.13-1.95,1.29-13.32,1.52-15.48c0.02-0.16,0.17-0.63,0.28-0.96c0.11-0.33,0.21-0.67,0.31-1
				c0.25-0.88,0.43-1.73,0.61-2.55c0.28-1.31,0.55-2.55,0.97-3.24c2.47-4.14,5.53-9.74,7.25-16.28c0.21-0.8,0.42-1.61,0.63-2.41
				c0.6-2.33,1.17-4.53,1.82-6.72c0.18-0.61,0.36-1.22,0.53-1.82c0.81-2.78,1.57-5.4,2.61-7.82c1.07-2.48,2.6-4.92,4.35-7.63
				c1.27-1.96,2.6-3.86,4.01-5.87c1.09-1.56,2.23-3.17,3.32-4.8c0.87-1.31,1.67-2.62,2.44-3.9c0.74-1.22,1.43-2.38,2.17-3.48
				c4.49-6.74,9.08-13.98,11.92-22.26c5.42,8.39,12.36,14.87,20.65,19.26c6.47,3.43,13.3,4.5,20.3,5.39
				c1.85,0.23,3.72,0.35,5.56,0.35c5.75,0,11.41-1.16,16.83-3.43c9.01-3.79,16.15-9.34,21.24-16.51c3.91-5.51,7.13-11.02,9.59-16.36
				c2-4.35,3.01-8.94,3.99-13.37l0.31-1.4c0.71-3.19,1.12-6.38,1.51-9.47c0.07-0.53,0.14-1.07,0.21-1.6
				c3.78-0.24,9.4-0.56,13.62-0.81c6.54-0.38,10.41-0.6,11.58-0.7c0.06,0,0.12,0,0.2,0c3.42-0.03,6.89-0.37,9.11-2.62
				c3.25-3.28,3.33-7.3,3.38-9.45c0.08-3.66-1.13-6.87-3.49-9.28c-2.46-2.51-5.97-3.89-9.89-3.89c-0.22,0-0.44,0-0.66,0.01
				c-5.62,0.22-11.52,0.52-18.58,0.94c-1.18,0.07-3.12,0.12-4.93,0.12c-0.54,0-1.03,0-1.46-0.01c-0.2-0.97-0.39-1.97-0.59-3.02
				c-1.46-7.79-4.41-15.59-9-23.86c-3.8-6.85-8.57-12.66-14.15-17.27c-8.12-6.69-15.78-10.34-24.12-11.49
				C422.67,129.2,420.09,129.03,417.54,129.03L417.54,129.03z M228.68,218.9c11.59-0.47,54.21-2.56,75.79-3.62
				c5.38-0.26,9.21-0.45,10.5-0.51c1.51-0.07,6.94-0.26,12.69-0.46c5.23-0.18,10.64-0.37,13.4-0.49c2.46-0.1,4.95-0.23,7.35-0.36
				c3.05-0.16,6.17-0.33,9.27-0.43c-0.42,1.77-1.14,3.37-2.18,4.78c-0.93,1.27-1.82,2.56-2.68,3.81c-0.95,1.38-1.85,2.68-2.79,3.95
				c-0.82,1.1-1.7,2.17-2.63,3.31c-1,1.22-2.03,2.49-3.03,3.83c-1.56,2.1-3.08,4.24-4.56,6.32c-1.5,2.1-3.05,4.28-4.6,6.37
				c-4.41,5.94-7.28,12.43-9.71,18.56c-1.08,2.72-3.27,5.39-5.25,7.69c-0.2,0.21-0.97,0.65-1.48,0.94c-1.32,0.75-2.96,1.68-4.28,3.3
				c-2.36,2.9-4.28,6.03-6.13,9.05c-0.36,0.59-0.72,1.17-1.08,1.75c-0.93,1.5-1.8,3.01-2.63,4.48c-1.24,2.18-2.42,4.24-3.74,6.15
				c-1.35,1.95-2.65,3.53-3.94,4.76c1.48-3.32,2.41-6.52,3.32-9.61c0.76-2.6,1.47-5.05,2.49-7.54c1.93-4.73,1.75-10.22-0.53-15.87
				c-0.24-0.59-0.41-1.42-0.59-2.3c-0.21-1.02-0.45-2.18-0.87-3.38c-0.6-1.7-1.55-3.08-2.32-4.18l-0.33-0.47
				c-0.88-1.29-1.81-2.46-2.71-3.6l-0.14-0.17c-0.63-0.8-1.33-1.24-2.58-2.05c-0.63-0.4-2.07-1.33-2.54-1.77
				c-0.32-0.41-0.61-0.8-0.88-1.17c-2.61-3.47-4.67-6.21-10.97-7.45c-0.28-0.05-0.65-0.16-1.05-0.28c-1.07-0.31-2.39-0.69-3.95-0.69
				c-0.15,0-0.3,0-0.45,0.01c-2.42,0.12-4.75,0.47-6.99,0.82c-0.56,0.09-1.12,0.17-1.69,0.25c-0.75,0.11-1.5,0.22-2.26,0.32
				c-3.05,0.43-6.2,0.88-9.34,1.5c-2.52,0.5-3.84,1.61-4.8,2.42c-0.17,0.14-0.34,0.29-0.55,0.46c-0.28,0.22-1.14,0.69-1.77,1.02
				c-2.54,1.37-6.01,3.25-7.29,6.81c-1.58,4.41-0.65,7.29,0.67,9.11c-0.05,0.24-0.09,0.48-0.14,0.72c-0.58,2.98-1.14,5.79-1.75,8.59
				c-3,2.75-3.36,6.91-0.85,10c0.03,0.24,0.02,0.72,0.01,1.09c-0.01,0.55-0.02,1.18,0.02,1.87c0,0.01,0,0.01,0,0.02
				c0.03,0.52-0.02,1.1-0.15,1.74c-1-1.61-1.95-3.16-2.86-4.72c-2.4-4.12-3.37-9.06-4.1-13.36c-0.96-5.72-3.03-11.04-6.33-16.26
				c-0.5-0.79-0.98-1.59-1.48-2.44c-0.42-0.7-0.85-1.43-1.3-2.15c2.42-4.14,4.41-8.9,6.24-14.91c1.3-4.29,1.74-8.51,2.17-12.59
				C228.47,220.83,228.57,219.86,228.68,218.9L228.68,218.9z"/>
		</g>
	</g>
</g>
<path class="st2" d="M493.51,155.08l9.25-9.25l3.2,3.2c2.92,2.92,7.7,2.92,10.62,0L528,137.61c2.92-2.92,2.92-7.7,0-10.62L503,102
	c-2.92-2.92-7.7-2.92-10.62,0l-11.42,11.42c-2.92,2.92-2.92,7.7,0,10.62l3.2,3.2l-9.25,9.25c-41.41-37.45-94.89-61.8-153.91-66.5
	v-9.53h7.24c6.6,0,12-5.4,12-12V22.65c0-6.6-5.4-12-12-12h-56.5c-6.6,0-12,5.4-12,12v25.81c0,6.6,5.4,12,12,12h7.24v9.53
	c-59.02,4.7-112.5,29.05-153.91,66.5l-10.9-10.9l3.2-3.2c2.92-2.92,2.92-7.7,0-10.62l-11.42-11.42c-2.92-2.92-7.7-2.92-10.62,0
	l-24.99,24.99c-2.92,2.92-2.92,7.7,0,10.62l11.42,11.42c2.92,2.92,7.7,2.92,10.62,0l3.2-3.2l10.9,10.9
	C64.64,201.35,39.15,262.7,39.15,330c0,144.07,116.79,260.85,260.85,260.85S560.85,474.07,560.85,330
	C560.85,262.7,535.36,201.35,493.51,155.08z M357.57,536.41c0.98,2.79,1.57,5.59,2.14,8.3c0.26,1.26,0.51,2.46,0.8,3.64
	c1.32,5.46-3.03,13.15-8.46,14.97c-1.92,0.64-3.82,1.45-5.83,2.3c-2.01,0.85-4.09,1.73-6.26,2.48c-2.91,1-6.03,1.64-9.26,1.92
	c-6.13,0.52-12.1,0.84-17.77,0.95c-0.14,0-0.28,0-0.42,0c-2.77,0-5.46-0.54-7.83-1.01l-0.37-0.07c-2.12-0.42-3.96-1.78-5.18-3.82
	c-1.56-2.6-1.97-6.04-1.08-9c1.29-4.26,4.18-7.08,6.5-9.34c0.42-0.41,0.85-0.82,1.26-1.24c0.78-0.8,1.56-1.61,2.34-2.42
	c-2.7,0.1-5.42,0.17-8.15,0.17c-5.42,0-10.78-0.21-16.1-0.6c-0.09,0.67-0.2,1.35-0.39,2.05c-1.07,4.07-5.94,4.89-10.65,5.69
	c-3.7,0.63-8.68,1.25-14.82,1.86c-10.86,1.08-22.78,1.83-26.67,1.83c-0.19,0-0.36,0-0.52,0c-0.45-0.01-0.9-0.01-1.35-0.01
	c-0.73,0-1.46,0.01-2.18,0.02c-0.77,0.01-1.53,0.02-2.3,0.02c-1.17,0-2.15-0.02-3.07-0.07c-5.3-0.26-10.08-0.51-14.91-1.05
	c-3.88-0.43-5.58-2.36-6.33-3.9c-0.39-0.8-0.69-1.86-0.62-3.15c-0.19-0.21-0.37-0.44-0.55-0.69c-1.81-2.55-2.33-6.07-1.39-9.42
	c0.93-3.33,3.11-5.95,5.98-7.18c2.3-0.99,4.62-1.83,6.87-2.65c0.86-0.31,1.68-0.62,2.51-0.92C138.26,492.8,85.76,417.54,85.76,330
	c0-38.39,10.11-74.42,27.8-105.59c-2.1-0.86-3.86-2.63-4.75-4.39c-1.45-2.88-0.89-7.05,0.24-9.7c1.28-3.01,3.23-4.16,4.64-4.6
	c1.94-0.6,3.83-0.74,5.5-0.87l0.39-0.03c0.04,0,0.07-0.01,0.11-0.01c0.22-1.84,0.47-3.72,0.9-5.61l0.32-1.41
	c0.99-4.42,2.02-9,3.75-13.42c2.89-7.4,7.51-14.23,13.73-20.3c6.94-6.77,15.76-11.21,26.23-13.2c3.71-0.71,7.3-1.07,10.69-1.07
	c2.66,0,5.25,0.23,7.76,0.66c33.63-21.95,73.79-34.72,116.94-34.72c32.36,0,63.04,7.19,90.54,20.03c3.25-1.86,6.72-3.35,10.43-4.39
	c5.58-1.57,11.15-2.37,16.56-2.37c2.55,0,5.13,0.18,7.66,0.52c8.34,1.15,16.01,4.8,24.12,11.49c5.59,4.61,10.35,10.42,14.15,17.27
	c4.59,8.27,7.53,16.07,9,23.86c0.2,1.05,0.39,2.05,0.59,3.02c0.43,0.01,0.92,0.01,1.46,0.01c1.81,0,3.75-0.05,4.93-0.12
	c7.06-0.42,12.96-0.72,18.58-0.94c0.22-0.01,0.44-0.01,0.66-0.01c3.92,0,7.43,1.38,9.89,3.89c2.36,2.41,3.57,5.62,3.49,9.28
	c-0.05,2.16-0.13,6.17-3.38,9.45c-2.23,2.25-5.69,2.59-9.11,2.62c-0.08,0-0.14,0-0.2,0c-1.17,0.1-5.04,0.32-11.58,0.7
	c-2.97,0.17-6.63,0.38-9.86,0.58c22.92,34.11,36.3,75.17,36.3,119.35C514.24,428.38,447.93,511.26,357.57,536.41z"/>
</svg>
